<svg viewBox="0 0 113 113" fill="none" xmlns="http://www.w3.org/2000/svg">
<path d="M60.3 27.7L60.2 28.2C74.4 30 85 42.2 85 56.5C85 65.3 81 73.5 74.1 78.9L74.4 79.3C81.4 73.8 85.5 65.4 85.5 56.5C85.6 41.9 74.7 29.6 60.3 27.7Z" fill="white"/>
<path d="M31.1 69.4C29 65.4 28 61 28 56.5C28 49.5 30.5 42.8 35.1 37.6C39.7 32.4 45.9 29.1 52.7 28.2L52.6 27.7C45.7 28.6 39.3 32 34.7 37.3C30 42.6 27.4 49.4 27.4 56.5C27.4 61.1 28.5 65.6 30.6 69.7C32.6 73.6 35.5 77.1 39 79.7L39.3 79.3C35.9 76.7 33.1 73.3 31.1 69.4Z" fill="white"/>
<path d="M71.6 70.4C69.9 65.6 66.8 63.1 65.1 62C64.4 61.5 63.8 61.2 63.2 60.9C61.8 60.1 61 59.6 60.7 58.6C60.7 58.6 60.7 58.5 60.7 58.4C60.7 58.3 60.7 58.2 60.6 58.1C60.5 57 60.8 55.3 61.4 52.3C62.8 45.8 68.4 43.7 70.4 43.1C70.6 43 70.9 43 71.1 42.9L71.3 42.8V42.6C71.1 41.3 70.8 40.3 70.5 39.4C70.5 39.3 70.5 39.3 70.4 39.2C69.7 37.6 68.7 36.7 67.1 35.7C67 35.6 66.9 35.6 66.8 35.5C66.2 35.2 65.6 34.8 64.9 34.4C64.4 34.1 63.9 33.9 63.4 33.6C58.7 30.9 58.8 29.3 58.8 29.2V29L58.7 28.9C57.4 28.2 57.4 27.5 58.1 25.8C58.6 24.6 58.6 23.3 58 22.5C57.7 22 57.2 21.7 56.6 21.7C56 21.7 55.5 22 55.2 22.5C54.6 23.3 54.6 24.6 55.1 25.8C55.8 27.5 55.8 28.2 54.5 28.9L54.4 29V29.2C54.4 29.2 54.5 30.9 49.8 33.6C49.3 33.9 48.8 34.2 48.3 34.4C47.7 34.7 47.1 35 46.6 35.3C46.5 35.3 46.2 35.5 45.9 35.8C44.5 36.7 43.6 37.6 42.9 39C42.9 39.1 42.8 39.2 42.7 39.4C42.4 40.2 42.1 41.2 41.9 42.4V42.6L42.1 42.7C42.3 42.8 42.5 42.8 42.7 42.9C44.6 43.4 50.4 45.6 51.7 52.1C52.4 55.3 52.7 57 52.5 58C52.5 58 52.5 58 52.5 58.1C52.3 59.2 51.5 59.7 50 60.5C49.5 60.8 48.8 61.2 48.1 61.6C46.4 62.7 43.3 65.3 41.6 70C40 75.2 40.1 81 42.1 87.5C42.1 87.8 42.3 88.6 46.5 89.2C49.2 89.6 52.8 89.8 56.7 89.8C60.6 89.8 64.1 89.6 66.9 89.2C71.3 88.6 71.3 87.8 71.3 87.5C71.3 87.5 71.3 87.4 71.3 87.3C73.2 80.8 73.3 75.2 71.6 70.4ZM62.9 61.2C63.4 61.5 64.1 61.9 64.8 62.3C66.5 63.4 69.5 65.9 71.2 70.5C72.9 75.1 72.8 80.6 70.9 86.8C70.5 86.5 69.6 86.2 67.8 85.9C69.2 81.4 69.6 77 68.8 73.1C68.1 69.4 66.3 66.2 63.8 64C60.6 61.2 59.7 60.2 59.4 59.1C59.8 59 60.1 59 60.3 58.9C60.6 59.9 61.5 60.4 62.9 61.2ZM46 85.8C44.6 81.3 44.2 77 45 73.2C45.7 69.6 47.4 66.5 49.9 64.3C53.2 61.4 54.2 60.3 54.5 59.1C54.9 59.2 55.4 59.2 55.9 59.2C55.9 62.1 54.7 64.3 53.5 66.6C52 69.4 50.3 72.5 50.4 77.4C50.4 80.4 50.8 83.1 51.2 85.2C49.5 85.3 47.9 85.5 46.6 85.7C46.4 85.8 46.2 85.8 46 85.8ZM54.5 57.6C54.5 57.5 54.5 57.3 54.5 57.2C54.5 57.1 54.5 57 54.5 56.8C54.5 55.6 54.5 53.8 53.6 51C52.9 48.5 50.5 45.2 47.7 43.3C48.2 43.2 48.8 43 49.3 42.8C50.1 43.4 50.8 44 51.5 44.8C53.4 47.1 55.3 50.3 55.7 57.6C55.3 57.6 54.9 57.6 54.5 57.6ZM60.2 58.4C60.1 58.5 59.8 58.5 59.4 58.6C59.4 58.5 59.4 58.3 59.4 58.1C59.7 58.3 60 58.3 60.2 58.4ZM56.7 58.8C56.6 58.8 56.4 58.8 56.3 58.8C56.3 58.7 56.3 58.5 56.3 58.4C56.3 58.3 56.3 58.1 56.3 58C56.5 58 56.6 58 56.8 58C56.9 58 57.1 58 57.2 58C57.2 58.1 57.2 58.3 57.2 58.4C57.2 58.5 57.2 58.7 57.2 58.8C56.9 58.8 56.8 58.8 56.7 58.8ZM55.8 58C55.8 58.1 55.8 58.3 55.8 58.4C55.8 58.5 55.8 58.7 55.8 58.8C55.3 58.8 54.8 58.7 54.5 58.7C54.5 58.5 54.5 58.3 54.5 58.1C54.9 58.1 55.3 58.1 55.8 58ZM57.5 58.4C57.5 58.3 57.5 58.1 57.5 58C58 58 58.4 58.1 58.8 58.1C58.8 58.3 58.8 58.5 58.8 58.7C58.4 58.7 58 58.8 57.5 58.8C57.5 58.7 57.5 58.6 57.5 58.4ZM58.8 57.2C58.8 57.3 58.8 57.5 58.8 57.6C58.8 57.6 58.8 57.6 58.8 57.7C58.4 57.7 58 57.6 57.6 57.6C58 50.4 59.9 47.2 61.8 44.8C62.5 44 63.2 43.4 64 42.8C64.5 43 65 43.1 65.6 43.3C62.8 45.2 60.5 48.5 59.7 51C58.9 53.8 58.8 55.6 58.8 56.8C58.8 56.9 58.8 57.1 58.8 57.2ZM61.5 44.5C59.5 46.9 57.6 50.2 57.1 57.5C57 57.5 56.8 57.5 56.7 57.5C56.5 57.5 56.4 57.5 56.2 57.5C55.7 50.1 53.8 46.9 51.8 44.5C51.2 43.8 50.5 43.1 49.8 42.6C51 42.1 52.1 41.4 53.1 40.6C54.4 39.7 55.6 37.7 56.6 35.6C57.6 37.7 58.8 39.7 60.1 40.6C61.2 41.4 62.2 42.1 63.4 42.6C62.8 43.1 62.1 43.7 61.5 44.5ZM54 58.6C53.6 58.5 53.4 58.5 53.2 58.4C53.3 58.3 53.6 58.3 54 58.2C54 58.4 54 58.5 54 58.6ZM50.8 77.5C50.7 72.7 52.3 69.8 53.8 66.9C55.1 64.5 56.3 62.3 56.3 59.3C56.4 59.3 56.6 59.3 56.7 59.3C56.8 59.3 56.9 59.3 57 59.3C57 62.3 58.2 64.5 59.5 66.9C61 69.8 62.6 72.7 62.5 77.5C62.5 80.5 62.1 83.2 61.7 85.3C60.1 85.2 58.4 85.2 56.7 85.2C54.9 85.2 53.2 85.2 51.6 85.3C51.2 83.2 50.8 80.5 50.8 77.5ZM63 77.5C63.1 72.6 61.4 69.5 59.9 66.7C58.7 64.4 57.5 62.2 57.5 59.3C58 59.3 58.5 59.2 58.9 59.2C59.2 60.4 60.2 61.4 63.5 64.4C66 66.6 67.7 69.7 68.4 73.3C69.2 77.1 68.8 81.5 67.4 85.9C67.2 85.9 67.1 85.9 66.9 85.8C65.5 85.6 63.9 85.4 62.2 85.3C62.6 83.2 63 80.5 63 77.5ZM66.6 44.3C64.5 45.6 61.8 48 60.9 52.3C60.3 55.1 60 56.8 60.1 57.9C59.9 57.8 59.7 57.8 59.4 57.7H59.3V57.6C59.3 57.5 59.3 57.3 59.3 57.2C59.3 57.1 59.3 57 59.3 56.8C59.3 55.6 59.3 53.8 60.2 51.1C61 48.5 63.4 45.2 66.3 43.4C66.7 43.5 67.2 43.5 67.7 43.5C67.9 43.5 68.1 43.5 68.2 43.5C67.7 43.7 67.2 44 66.6 44.3ZM70.8 42.6C70.7 42.6 70.5 42.7 70.2 42.8C69 43 67.9 43.1 67 43C67.3 42.8 67.6 42.7 68 42.6C69.3 42.1 70.1 41.5 70.5 40.8C70.5 41.3 70.7 41.9 70.8 42.6ZM69.9 39.5C70 39.6 70 39.7 70 39.7C70.1 39.9 70.1 40.1 70 40.3C69.9 40.8 69.4 41.4 67.7 42.1C67.2 42.3 66.6 42.6 66.1 42.9C65.5 42.8 65 42.7 64.4 42.5C65 42.1 65.5 41.8 66 41.5C66.7 41 67.4 40.7 67.9 40.3C68.6 39.7 69 39 68.9 38.2C68.9 38.1 68.9 38 68.8 37.9C69.3 38.3 69.6 38.8 69.9 39.5ZM63.2 34.2C63.7 34.5 64.2 34.8 64.7 35C65.3 35.3 65.9 35.6 66.4 35.9C66.4 35.9 66.5 36 66.7 36L66.8 36.1C67.4 36.5 68.3 37.2 68.5 38.1C68.6 38.6 68.3 39.2 67.7 39.7C67.3 40.1 66.6 40.5 65.9 40.9C65.3 41.3 64.7 41.6 64 42.1C62.8 41.6 61.7 40.8 60.5 40C59.2 39.1 58 36.9 57 34.8C57.8 33.1 58.4 31.4 58.7 30.2C59.1 31.2 60.2 32.6 63.2 34.2ZM56.1 28.1C56.2 27.5 56 26.8 55.6 25.9C55.2 24.9 55.2 23.7 55.7 23C55.9 22.7 56.2 22.4 56.7 22.4C57.2 22.4 57.5 22.7 57.7 23C58.2 23.7 58.2 24.8 57.8 25.9C57.1 27.7 57 28.7 58.4 29.5C58.2 30.5 57.6 32.4 56.7 34.3C55.8 32.3 55.2 30.4 55 29.5C55.7 29.1 56 28.7 56.1 28.1ZM48.6 35.1C49.1 34.8 49.6 34.6 50.1 34.3C53.1 32.6 54.2 31.3 54.7 30.5C55 31.7 55.6 33.4 56.4 35.1C55.4 37.3 54.1 39.4 52.9 40.3C51.8 41.1 50.7 41.8 49.4 42.4C48.7 41.9 48.1 41.5 47.5 41.2C46.8 40.8 46.1 40.4 45.7 40C45.1 39.5 44.8 38.9 44.9 38.4C45 37.6 45.7 37 46.3 36.6C47 36 47.7 35.6 48.6 35.1ZM44.5 37.9C44.5 38 44.4 38.1 44.4 38.2C44.3 38.9 44.6 39.6 45.4 40.3C45.9 40.7 46.5 41.1 47.3 41.5C47.8 41.8 48.3 42.1 48.9 42.5C48.4 42.7 47.8 42.8 47.2 42.9C46.7 42.6 46.1 42.3 45.6 42.1C43.9 41.5 43.4 40.8 43.3 40.3C43.2 40.1 43.2 39.9 43.3 39.8C43.3 39.7 43.4 39.6 43.4 39.5C43.7 38.9 44.1 38.3 44.5 37.9ZM42.6 42.6C42.7 41.9 42.8 41.3 43 40.8C43.3 41.5 44.2 42.1 45.5 42.6C45.8 42.7 46.1 42.9 46.5 43C45.5 43.1 44.4 43 43.2 42.7C42.9 42.6 42.7 42.6 42.6 42.6ZM52.4 52.3C51.5 48.1 48.8 45.6 46.7 44.3C46.2 44 45.6 43.7 45.1 43.5C45.3 43.5 45.5 43.5 45.7 43.5C46.2 43.5 46.6 43.5 47.1 43.4C50 45.2 52.4 48.6 53.2 51.1C54 53.9 54 55.6 54.1 56.8C54.1 56.9 54.1 57 54.1 57.1C54.1 57.2 54.1 57.4 54.1 57.5V57.6C53.8 57.7 53.5 57.7 53.3 57.8C53.3 56.7 53 55 52.4 52.3ZM42.2 70.6C43.9 66 46.9 63.5 48.6 62.4C49.3 61.9 49.9 61.6 50.5 61.3C52 60.5 52.8 59.9 53.1 58.9C53.3 59 53.6 59.1 54 59.1C53.7 60.2 52.8 61.1 49.6 64C47.1 66.3 45.3 69.4 44.6 73.1C43.8 77 44.2 81.4 45.6 85.9C43.8 86.2 42.9 86.6 42.6 86.9C40.6 80.7 40.5 75.2 42.2 70.6ZM42.6 87.5C42.6 87.3 43.4 86.7 46.6 86.3C48 86.1 49.5 86 51.2 85.8C51.6 87.5 51.9 88.7 52.1 89.2C50 89.1 48.1 88.9 46.5 88.7C43.5 88.2 42.6 87.7 42.6 87.5ZM52.7 89.2C52.6 88.8 52.1 87.5 51.7 85.7C53.3 85.6 54.9 85.6 56.7 85.6C58.4 85.6 60 85.6 61.6 85.7C61.2 87.5 60.8 88.8 60.6 89.2C59.3 89.3 58 89.3 56.7 89.3C55.3 89.3 54 89.3 52.7 89.2ZM66.8 88.7C65.2 88.9 63.3 89.1 61.1 89.2C61.3 88.6 61.7 87.4 62 85.8C63.7 85.9 65.4 86.1 66.7 86.3C69.4 86.7 70.4 87.2 70.6 87.4H70.7C70.7 87.4 70.7 87.4 70.7 87.5C70.8 87.7 70 88.2 66.8 88.7Z" fill="white"/>
</svg>
