<svg viewBox="0 0 113 113" fill="none" xmlns="http://www.w3.org/2000/svg">
<path d="M1.00002 65.8C0.900018 65.3 0.900018 64.9 1.00002 64.5C1.10002 64.1 1.20002 63.7 1.40002 63.4C1.60002 63.1 1.90002 62.8 2.30002 62.6C2.70002 62.4 3.10002 62.2 3.70002 62.2C4.20002 62.1 4.70002 62.1 5.20002 62.2C5.60002 62.3 6.00002 62.4 6.30002 62.7C6.60002 62.9 6.90002 63.3 7.10002 63.6C7.30002 64 7.50002 64.4 7.50002 65L7.90002 67.1L1.40002 68.2L1.00002 65.8ZM6.60002 65.1C6.50002 64.7 6.40002 64.4 6.30002 64.1C6.10002 63.8 6.00002 63.7 5.70002 63.5C5.50002 63.4 5.20002 63.3 4.90002 63.2C4.60002 63.2 4.30002 63.2 3.90002 63.2C3.20002 63.3 2.60002 63.6 2.30002 63.9C1.90002 64.3 1.80002 64.8 1.90002 65.5L2.10002 66.8L6.70002 66L6.60002 65.1Z" fill="white"/>
<path d="M0.200012 55.9L0.400012 51.5H1.40001L1.30001 54.8L2.90001 55L3.00001 51.9H4.00001L3.90001 55L5.90001 55.1L6.00001 51.6L7.00001 51.8L6.80001 56.2L0.200012 55.9Z" fill="white"/>
<path d="M2.70002 43.6L2.20002 45.6L1.30002 45.4L2.60002 40.3L3.50002 40.5L3.00002 42.5L8.50002 43.9L8.20002 45L2.70002 43.6Z" fill="white"/>
<path d="M5.20001 33.3L5.70001 32.3L12.7 32.8L12.2 33.9L10.4 33.8L9.30001 36.1L10.6 37.4L10.1 38.4L5.20001 33.3ZM9.40001 33.7L6.50001 33.4L8.60001 35.4L9.40001 33.7Z" fill="white"/>
<path d="M10 24.8L10.6 23.9L16 27.7L15.4 28.6L10 24.8Z" fill="white"/>
<path d="M15.5 17.8L19.5 21.7L21.8 19.4L22.4 20.2L19.4 23.3L14.7 18.7L15.5 17.8Z" fill="white"/>
<path d="M22.7 11.3L26.3 8.8L26.8 9.6L24.1 11.5L25.1 12.9L27.6 11.1L28.2 11.9L25.7 13.7L26.8 15.3L29.6 13.3L30 14.2L26.4 16.7L22.7 11.3Z" fill="white"/>
<path d="M34.5 4.6C34.9 4.4 35.4 4.3 35.8 4.3C36.2 4.3 36.6 4.3 36.9 4.5C37.3 4.6 37.6 4.9 37.9 5.2C38.2 5.5 38.4 5.9 38.7 6.4C38.9 6.9 39 7.4 39 7.8C39 8.3 39 8.7 38.8 9C38.6 9.4 38.4 9.7 38.1 10C37.8 10.3 37.4 10.5 36.9 10.7L34.9 11.5L32.4 5.4L34.5 4.6ZM36.5 9.9C36.9 9.7 37.1 9.6 37.4 9.4C37.6 9.2 37.8 9 37.8 8.7C37.9 8.4 37.9 8.2 37.9 7.9C37.9 7.6 37.8 7.3 37.6 6.9C37.3 6.2 37 5.8 36.5 5.5C36.1 5.2 35.5 5.2 34.9 5.5L33.7 6L35.5 10.3L36.5 9.9Z" fill="white"/>
<path d="M56.8 4.4C56.8 4.7 56.7 5.1 56.6 5.4C56.5 5.7 56.3 6 56.1 6.2C55.9 6.4 55.6 6.6 55.3 6.7C55 6.8 54.6 6.9 54.2 6.9C53.7 6.9 53.3 6.9 52.9 6.7C52.5 6.6 52.2 6.3 51.9 6.1C51.6 5.8 51.4 5.5 51.3 5C51.2 4.5 51 4.2 51 3.6C51 3.1 51 2.6 51.1 2.1C51.2 1.7 51.4 1.3 51.7 1C51.9 0.7 52.3 0.4 52.6 0.3C52.9 0.1 53.3 0 53.8 0C54.2 0 54.6 0 54.9 0.1C55.2 0.2 55.5 0.3 55.7 0.5C55.9 0.7 56.1 0.9 56.2 1.2C56.3 1.5 56.5 1.8 56.5 2.1L55.4 2.3C55.3 2.1 55.3 1.9 55.2 1.7C55.1 1.5 55 1.4 54.9 1.3C54.8 1.2 54.6 1.1 54.4 1C54.3 1 54.1 1 53.8 1C53.5 1 53.2 1.1 53 1.2C52.8 1.3 52.6 1.5 52.4 1.7C52.3 1.9 52.2 2.2 52.1 2.5C52 2.8 52 3.2 52 3.5C52 3.9 52.1 4.2 52.2 4.5C52.3 4.8 52.4 5.1 52.6 5.3C52.8 5.5 53 5.7 53.2 5.8C53.6 5.9 53.8 6 54.1 6C54.4 6 54.6 5.9 54.8 5.9C55 5.9 55.1 5.7 55.2 5.6C55.3 5.5 55.4 5.3 55.5 5.1C55.6 4.9 55.6 4.7 55.6 4.5L56.8 4.4Z" fill="white"/>
<path d="M65.4 0.8C65.9 0.9 66.3 1 66.6 1.2C66.9 1.4 67.1 1.6 67.3 1.8C67.5 2 67.6 2.2 67.6 2.5C67.6 2.7 67.6 3 67.6 3.2C67.5 3.6 67.4 4 67.2 4.2C67 4.5 66.7 4.6 66.3 4.8L67.2 7.9L66 7.7L65.2 4.9C65.1 4.9 65.1 4.9 65 4.9C64.9 4.9 64.9 4.9 64.8 4.9L63.6 4.7L63.2 7.3L62.1 7L63.1 0.5L65.4 0.8ZM65 3.8C65.3 3.8 65.5 3.8 65.6 3.8C65.8 3.8 65.9 3.7 66 3.6C66.1 3.5 66.2 3.4 66.3 3.3C66.4 3.2 66.4 3 66.4 2.9C66.4 2.7 66.4 2.6 66.4 2.5C66.4 2.4 66.3 2.2 66.2 2.1C66.2 2.1 66 2 65.9 1.9C65.7 1.8 65.5 1.8 65.3 1.7L64.2 1.5L63.9 3.6L65 3.8Z" fill="white"/>
<path d="M76.4 3.7L77.4 4.1V11.2L76.3 10.8V9L73.9 8L72.7 9.3L71.7 9L76.4 3.7ZM76.4 8L76.5 5.1L74.6 7.3L76.4 8Z" fill="white"/>
<path d="M88.9 10.3L88.4 11.1L85.8 9.4L84.8 11L87.3 12.6L86.8 13.4L84.3 11.8L82.8 14.2L81.9 13.6L85.4 8L88.9 10.3Z" fill="white"/>
<path d="M94.6 16.2L93.1 14.7L93.8 14L97.6 17.7L96.9 18.4L95.4 17L91.5 21.1L90.7 20.3L94.6 16.2Z" fill="white"/>
<path d="M98.4 25.9C98.1 26.2 97.9 26.5 97.9 26.8C97.9 27.1 98 27.5 98.3 27.9C98.4 28.1 98.6 28.3 98.7 28.4C98.8 28.5 99 28.6 99.1 28.6C99.2 28.6 99.4 28.6 99.5 28.6C99.6 28.6 99.8 28.5 99.9 28.4C100 28.3 100.1 28.3 100.1 28.2C100.2 28.1 100.2 28 100.2 27.9C100.2 27.8 100.2 27.7 100.2 27.5C100.2 27.4 100.1 27.2 100 27L99.7 26.2C99.6 25.9 99.5 25.6 99.4 25.3C99.3 25 99.3 24.8 99.3 24.6C99.3 24.4 99.4 24.2 99.5 24C99.6 23.8 99.8 23.6 100.1 23.4C100.4 23.2 100.6 23.1 100.9 23.1C101.2 23.1 101.4 23.1 101.7 23.2C102 23.3 102.2 23.4 102.4 23.7C102.6 23.9 102.9 24.2 103.1 24.5C103.4 24.9 103.5 25.2 103.6 25.5C103.7 25.8 103.7 26.1 103.7 26.4C103.7 26.7 103.6 26.9 103.5 27.1C103.4 27.3 103.2 27.5 103 27.7L102.3 26.9C102.6 26.6 102.7 26.3 102.7 26.1C102.7 25.8 102.6 25.5 102.3 25.1C102.2 24.9 102 24.7 101.9 24.6C101.8 24.5 101.6 24.4 101.5 24.4C101.4 24.4 101.2 24.3 101.1 24.4C101 24.4 100.9 24.5 100.8 24.5C100.6 24.7 100.4 24.9 100.4 25.1C100.4 25.3 100.4 25.6 100.6 26L101 26.9C101.3 27.5 101.4 28.1 101.3 28.5C101.2 28.9 100.9 29.3 100.5 29.7C100.3 29.9 100 30 99.8 30C99.5 30.1 99.3 30 99 30C98.7 29.9 98.5 29.8 98.2 29.6C97.9 29.4 97.7 29.1 97.5 28.8C97 28.1 96.8 27.5 96.8 26.9C96.8 26.3 97.1 25.8 97.7 25.3L98.4 25.9Z" fill="white"/>
<path d="M107.7 32.6L108.2 33.9L104 37.6L109.6 37.5L110.1 38.7L104 41.1L103.6 40.1L108.1 38.3L103 38.4L102.7 37.6L106.5 34.2L102 36L101.6 35.1L107.7 32.6Z" fill="white"/>
<path d="M112.2 47.4L112.4 48.5L106.3 52L106.1 50.8L107.7 49.9L107.3 47.4L105.5 47.1L105.3 46L112.2 47.4ZM108.5 49.5L111 48.1L108.2 47.6L108.5 49.5Z" fill="white"/>
<path d="M113 57.4L112.9 58.4L107.9 61.1L112.7 61.4L112.6 62.5L106 62.1L106.1 61.1L111 58.4L106.3 58.1L106.4 57L113 57.4Z" fill="white"/>
<path d="M106.8 68.9C106.4 68.8 106 68.9 105.8 69.1C105.5 69.3 105.3 69.6 105.2 70.1C105.1 70.3 105.1 70.6 105.1 70.7C105.1 70.9 105.1 71 105.2 71.2C105.3 71.3 105.3 71.4 105.5 71.5C105.6 71.6 105.7 71.6 105.9 71.7C106 71.7 106.1 71.7 106.2 71.7C106.3 71.7 106.4 71.7 106.5 71.6C106.6 71.5 106.7 71.5 106.8 71.4C106.9 71.3 107 71.1 107.1 70.9L107.5 70.1C107.6 69.8 107.8 69.5 108 69.3C108.2 69.1 108.3 68.9 108.5 68.8C108.7 68.7 108.9 68.6 109.1 68.6C109.3 68.6 109.6 68.6 109.9 68.7C110.2 68.8 110.4 68.9 110.6 69.1C110.8 69.3 110.9 69.5 111 69.8C111.1 70.1 111.1 70.3 111.1 70.7C111.1 71 111 71.3 110.9 71.7C110.8 72.1 110.6 72.5 110.4 72.8C110.2 73.1 110 73.3 109.8 73.4C109.6 73.5 109.4 73.6 109.1 73.7C108.9 73.7 108.6 73.7 108.4 73.7L108.5 72.6C108.9 72.6 109.2 72.5 109.4 72.4C109.6 72.2 109.8 71.9 109.9 71.5C110 71.2 110 71 110 70.8C110 70.6 110 70.5 109.9 70.3C109.8 70.2 109.8 70.1 109.7 70C109.6 69.9 109.5 69.9 109.4 69.8C109.1 69.7 108.9 69.7 108.7 69.9C108.5 70 108.3 70.2 108.2 70.6L107.8 71.4C107.5 72 107.1 72.5 106.7 72.7C106.3 72.9 105.8 73 105.3 72.8C105 72.7 104.8 72.6 104.6 72.4C104.4 72.2 104.2 72 104.1 71.8C104 71.6 103.9 71.3 103.9 70.9C103.9 70.6 103.9 70.2 104 69.8C104.2 69 104.6 68.4 105.1 68C105.6 67.6 106.2 67.5 106.9 67.7L106.8 68.9Z" fill="white"/>
<path d="M107.7 80.3L107.2 81.3L104.8 80.1L103.4 82.7L105.8 83.9L105.3 84.9L99.5 81.8L100 80.8L102.6 82.1L104 79.5L101.4 78.2L101.9 77.2L107.7 80.3Z" fill="white"/>
<path d="M101.4 90.6L100.7 91.5L95.5 87.5L96.2 86.6L101.4 90.6Z" fill="white"/>
<path d="M96.2 96.5L94.5 98C94.1 98.3 93.8 98.6 93.5 98.7C93.2 98.8 92.9 99 92.7 99C92.4 99 92.2 98.9 92 98.8C91.8 98.7 91.6 98.5 91.4 98.3C91.2 98.1 91.1 97.9 90.9 97.6C90.8 97.4 90.7 97.1 90.7 96.8C90.7 96.5 90.8 96.2 91 95.9C91.2 95.6 91.4 95.3 91.8 95L92.7 94.2L91 92.4L91.8 91.7L96.2 96.5ZM92.4 95.7C92.2 95.9 92 96.1 91.9 96.2C91.8 96.4 91.8 96.5 91.7 96.7C91.7 96.8 91.7 97 91.8 97.1C91.9 97.2 92 97.4 92.1 97.5C92.2 97.6 92.3 97.7 92.5 97.8C92.6 97.9 92.8 97.9 92.9 97.9C93 97.9 93.2 97.8 93.4 97.8C93.6 97.7 93.8 97.6 94 97.4L94.9 96.6L93.4 94.9L92.4 95.7Z" fill="white"/>
<path d="M78.6 103.3C78.4 102.9 78.1 102.7 77.8 102.6C77.5 102.5 77.1 102.6 76.6 102.8C76.4 102.9 76.2 103 76 103.1C75.8 103.2 75.8 103.3 75.7 103.5C75.6 103.6 75.6 103.8 75.6 103.9C75.6 104 75.6 104.2 75.7 104.3C75.7 104.4 75.8 104.5 75.9 104.6C76 104.7 76.1 104.7 76.2 104.8C76.3 104.8 76.4 104.9 76.6 104.9C76.7 104.9 76.9 104.9 77.1 104.8L77.9 104.6C78.2 104.5 78.5 104.5 78.8 104.5C79.1 104.5 79.3 104.5 79.5 104.6C79.7 104.7 79.9 104.8 80.1 105C80.3 105.2 80.4 105.4 80.5 105.7C80.6 106 80.7 106.3 80.7 106.5C80.7 106.8 80.6 107 80.5 107.2C80.4 107.4 80.2 107.6 79.9 107.8C79.7 108 79.4 108.2 79 108.3C78.6 108.5 78.2 108.6 77.9 108.6C77.6 108.6 77.3 108.6 77 108.5C76.7 108.4 76.5 108.3 76.4 108.1C76.2 107.9 76.1 107.8 75.9 107.5L77 107C77.2 107.3 77.5 107.5 77.7 107.6C78 107.7 78.3 107.6 78.7 107.4C78.9 107.3 79.1 107.2 79.3 107.1C79.4 107 79.5 106.9 79.6 106.8C79.7 106.7 79.7 106.6 79.7 106.4C79.7 106.3 79.7 106.2 79.6 106.1C79.5 105.8 79.3 105.7 79.1 105.6C78.9 105.5 78.6 105.5 78.2 105.6L77.3 105.8C76.6 106 76.1 106 75.6 105.8C75.1 105.6 74.8 105.3 74.6 104.8C74.5 104.5 74.4 104.3 74.4 104C74.4 103.7 74.5 103.5 74.6 103.2C74.7 103 74.9 102.7 75.2 102.5C75.4 102.3 75.8 102.1 76.1 101.9C76.9 101.6 77.6 101.5 78.1 101.6C78.7 101.7 79.1 102.1 79.5 102.8L78.6 103.3Z" fill="white"/>
<path d="M70.5 111.1L69.4 111.4L67.8 105L68.9 104.7L70.5 111.1Z" fill="white"/>
<path d="M62.7 112.5L61.7 112.6L58.4 108L58.7 112.8L57.6 112.9L57.2 106.3L58.2 106.2L61.5 110.7L61.2 106L62.3 105.9L62.7 112.5Z" fill="white"/>
<path d="M45.8 107.4C45.9 107.1 46 106.8 46.2 106.5C46.4 106.2 46.6 106 46.8 105.8C47.1 105.6 47.4 105.5 47.7 105.4C48 105.3 48.4 105.3 48.9 105.4C49.4 105.5 49.8 105.6 50.1 105.8C50.4 106 50.7 106.3 50.9 106.6C51.1 106.9 51.2 107.3 51.3 107.8C51.4 108.2 51.4 108.7 51.3 109.3C51.2 109.8 51.1 110.3 50.9 110.7C50.7 111.1 50.4 111.4 50.1 111.7C49.8 112 49.4 112.1 49.1 112.2C48.8 112.3 48.3 112.3 47.9 112.2C47.5 112.1 47.1 112 46.9 111.9C46.7 111.8 46.4 111.6 46.2 111.3C46 111.1 45.9 110.8 45.8 110.5C45.7 110.2 45.7 109.9 45.7 109.6H46.8C46.8 109.8 46.8 110 46.9 110.2C46.9 110.4 47 110.5 47.1 110.7C47.2 110.8 47.3 110.9 47.5 111C47.7 111.1 47.9 111.2 48.1 111.2C48.4 111.2 48.7 111.2 48.9 111.1C49.1 111 49.4 110.9 49.5 110.7C49.7 110.5 49.8 110.3 50 110C50.1 109.7 50.2 109.4 50.3 109C50.4 108.6 50.4 108.3 50.3 107.9C50.3 107.6 50.2 107.3 50.1 107.1C50 106.9 49.8 106.7 49.6 106.5C49.4 106.4 49.2 106.3 48.9 106.2C48.6 106.2 48.4 106.2 48.2 106.2C48 106.2 47.8 106.3 47.7 106.4C47.6 106.5 47.4 106.6 47.3 106.8C47.2 107 47.1 107.2 47.1 107.4H45.8Z" fill="white"/>
<path d="M38.7 110L34.6 108.5L34.9 107.6L38 108.7L38.6 107.1L35.7 106L36 105.1L38.9 106.2L39.6 104.4L36.4 103.2L36.9 102.3L41.1 103.9L38.7 110Z" fill="white"/>
<path d="M21.9 100.9L23.4 99.3L24.3 99.9L22.6 101.3L21.9 100.9Z" fill="white"/>
<path d="M19.1 94C19.2 94.3 19.2 94.6 19.1 94.9C19 95.2 18.9 95.5 18.6 95.7C18.4 95.9 18.2 96 18 96.1C17.8 96.2 17.6 96.2 17.3 96.2C17.1 96.2 16.8 96.1 16.5 96C16.2 95.9 16 95.7 15.7 95.4C15.4 95.1 15.2 94.8 15.1 94.6C15 94.2 15 94 15 93.7C15 93.5 15 93.2 15.1 93C15.2 92.8 15.3 92.6 15.5 92.4C15.8 92.1 16 92 16.3 91.9C16.6 91.8 16.9 91.9 17.1 92C17.1 91.9 17 91.7 17 91.6C17 91.4 17 91.3 17 91.1C17 90.9 17.1 90.8 17.1 90.6C17.2 90.4 17.3 90.3 17.4 90.2C17.8 89.8 18.3 89.6 18.8 89.7C19.3 89.7 19.9 90.1 20.4 90.6C21 91.2 21.2 91.7 21.3 92.3C21.3 92.8 21.1 93.3 20.7 93.7C20.6 93.8 20.4 93.9 20.2 94C20 94.1 19.9 94.1 19.7 94.1C19.5 94.1 19.4 94.1 19.2 94.1C19.3 94.1 19.2 94.1 19.1 94ZM17.9 94.9C18.2 94.7 18.3 94.4 18.3 94.2C18.3 93.9 18.1 93.7 17.8 93.4C17.5 93.1 17.2 92.9 17 92.9C16.7 92.9 16.5 93 16.2 93.2C16.1 93.3 16 93.4 16 93.5C15.9 93.6 15.9 93.7 15.9 93.9C15.9 94 15.9 94.2 16 94.3C16.1 94.4 16.2 94.6 16.3 94.8C16.5 95 16.6 95.1 16.8 95.2C17 95.3 17.1 95.3 17.2 95.3C17.3 95.3 17.5 95.3 17.6 95.2C17.7 95.1 17.8 95 17.9 94.9ZM20.2 93C20.4 92.8 20.6 92.5 20.6 92.2C20.6 91.9 20.4 91.6 20.1 91.3C19.8 91 19.5 90.8 19.2 90.8C18.9 90.8 18.6 90.9 18.4 91.1C18.3 91.2 18.2 91.3 18.1 91.4C18 91.5 18 91.7 18 91.8C18 91.9 18 92.1 18.1 92.2C18.2 92.4 18.3 92.5 18.5 92.7C18.7 92.9 18.9 93 19 93.1C19.1 93.2 19.3 93.2 19.5 93.2C19.6 93.2 19.8 93.2 19.9 93.1C19.9 93.1 20.1 93.1 20.2 93Z" fill="white"/>
<path d="M15.3 84.3C13.3 84.9 11.4 85.2 9.5 85.4L11.2 88.1L10.4 88.6L8 84.8L8.7 84.3C9.7 84.2 10.7 84.1 11.7 83.9C12.7 83.7 13.6 83.5 14.6 83.2L15.3 84.3Z" fill="white"/>
</svg>
