<?xml version="1.0" standalone="no"?>
<!DOCTYPE svg PUBLIC "-//W3C//DTD SVG 20010904//EN"
 "http://www.w3.org/TR/2001/REC-SVG-20010904/DTD/svg10.dtd">
<svg version="1.0" xmlns="http://www.w3.org/2000/svg"
 width="1080.000000pt" height="1080.000000pt" viewBox="0 0 1080.000000 1080.000000"
 preserveAspectRatio="xMidYMid meet">
<metadata>
Created by potrace 1.11, written by Peter Selinger 2001-2013
</metadata>
<g transform="translate(0.000000,1080.000000) scale(0.100000,-0.100000)"
fill="#000000" stroke="none">
<path d="M50 9540 c0 -138 0 -140 23 -140 89 -1 331 -23 424 -40 522 -93 816
-374 883 -845 14 -101 14 -6033 -1 -6162 -22 -195 -83 -371 -177 -510 -54 -80
-185 -202 -270 -252 -129 -77 -294 -135 -470 -166 -74 -12 -319 -35 -389 -35
-23 0 -23 -2 -23 -140 l0 -140 2680 0 2680 0 0 140 c0 138 0 140 -22 140 -13
0 -86 5 -163 10 -391 28 -655 124 -848 309 -124 118 -204 250 -253 418 -51
176 -54 231 -54 1121 l0 822 736 -2 736 -3 310 -635 c170 -349 396 -813 502
-1030 105 -217 218 -440 251 -495 251 -428 482 -661 756 -763 l74 -27 1663 -3
1662 -2 0 139 0 139 -107 6 c-337 20 -569 79 -762 195 -188 112 -366 325 -549
657 -77 140 -1212 2351 -1212 2361 0 5 55 37 123 72 355 186 591 350 821 571
385 372 612 837 667 1369 17 167 6 549 -21 725 -100 654 -403 1165 -916 1542
-519 383 -1267 631 -2229 739 -461 51 -307 49 -3527 52 l-2998 4 0 -141z
m5515 -150 c503 -41 850 -232 1097 -605 230 -346 356 -811 399 -1474 15 -241
6 -870 -15 -1076 -69 -651 -226 -1097 -499 -1415 -188 -221 -459 -369 -788
-431 -109 -21 -146 -22 -901 -26 l-788 -4 0 2520 0 2521 684 0 c384 0 739 -5
811 -10z"/>
</g>
</svg>
